<?xml version="1.0" encoding="UTF-8" standalone="no"?>
<!-- Generator: Adobe Illustrator 16.0.4, SVG Export Plug-In . SVG Version: 6.00 Build 0)  -->
<svg id="Layer_1" xmlns:rdf="http://www.w3.org/1999/02/22-rdf-syntax-ns#" xmlns="http://www.w3.org/2000/svg" enable-background="new 0 0 270 10" xml:space="preserve" height="10.175" viewBox="0 0 87.489331 10.175214" width="87.489" version="1.1" y="0px" x="0px" xmlns:cc="http://creativecommons.org/ns#" xmlns:dc="http://purl.org/dc/elements/1.1/"><metadata id="metadata75"><rdf:RDF><cc:Work rdf:about=""><dc:format>image/svg+xml</dc:format><dc:type rdf:resource="http://purl.org/dc/dcmitype/StillImage"/><dc:title/></cc:Work></rdf:RDF></metadata><g id="text4205" stroke="#808080" stroke-width=".074460" fill="#fff"><path id="path4193" d="m8.9884 9.9628h-3.3376l-1.7161-3.7521-1.0253 1.4616v2.2905h-2.8722v-9.9255h2.8722v4.1011l2.7413-4.1011h2.7341l-2.5087 3.6285 3.1122 6.2971z"/><path id="path4195" d="m16.58 0.037229v9.9255h-3.0467v-9.9255h3.0467z"/><path id="path4197" d="m29.494 7.5923v2.3705h-7.4678v-9.9255h7.4678v2.2905h-4.4792v1.4397h3.6212v2.2033h-3.6212v1.6215h4.4792z"/></g><g id="text4205-5" stroke="#808080" stroke-width=".071848" fill="#fff"><path id="path4200" d="m38.18 0.38655h2.3505l1.9084 6.9041 1.9576-6.9041h2.2523v9.5773h-1.4875v-8.1741l-2.2733 8.1741h-1.1507l-2.2312-8.1811v8.1811h-1.3261v-9.5773z"/><path id="path4202" d="m49.565 0.38655h1.7751l2.568 9.5773h-1.6067l-0.60341-2.3996h-2.7995l-0.58938 2.3996h-1.5155l2.7715-9.5773zm1.8172 5.9288-1.0875-4.3852-1.0805 4.3852h2.1681z"/><path id="path4204" d="m54.102 0.38655h1.8664l3.1503 6.9041v-6.9041h1.3261v9.5773h-1.4805l-3.5362-7.6689v7.6689h-1.3261v-9.5773z"/><path id="path4206" d="m63.48 0.38655h1.7751l2.568 9.5773h-1.6067l-0.60341-2.3996h-2.7995l-0.58938 2.3996h-1.5155l2.7715-9.5773zm1.8172 5.9288-1.0875-4.3852-1.0805 4.3852h2.1681z"/><path id="path4208" d="m71.153 5.0524h3.1995v4.9816h-0.84196l-0.21049-1.2138q-0.7297 1.3191-2.3084 1.3191-1.6067 0-2.5119-1.298-0.90511-1.305-0.90511-3.5362 0-2.3505 0.89108-3.7187 0.89809-1.3752 2.7504-1.3752 2.582 0 3.0872 2.9188l-1.431 0.3578q-0.253-1.2349-0.681-1.5998-0.428-0.3648-1.01-0.3648-1.9295 0-1.9295 3.6415 0 3.6625 1.9786 3.6625 1.6418 0 1.6418-2.5048h-1.719v-1.27z"/><path id="path4210" d="m75.262 0.38655h5.4868v1.27h-3.9011v2.7364h3.0591v1.277h-3.0591v2.996h3.9642v1.298h-5.5499v-9.5773z"/><path id="path4212" d="m81.167 0.38655h2.8837q1.5646 0 2.3084 0.70865 0.74373 0.70865 0.74373 2.0347 0 1.7681-1.4664 2.5048l1.8172 4.3291h-1.719l-1.4945-3.9993h-1.4875v3.9993h-1.5857v-9.5773zm1.5857 1.2279v3.1223h1.2138q0.8139 0 1.1928-0.44905 0.3859-0.44905 0.3859-1.1717 0-1.5015-1.5646-1.5015h-1.2279z"/></g></svg>
